<svg width="801" height="857" viewBox="0 0 801 857" fill="none" xmlns="http://www.w3.org/2000/svg">
    <path
        d="M438.92 92.7873C438.92 121.073 458.756 144.023 483.225 144.023C486.56 144.023 489.804 143.552 492.928 142.758C485.368 162.838 494.615 191.769 517.415 191.769H534.193H557.736C579.26 191.769 590.432 205 590.432 225.462V264.825H623.544V217.301C623.548 183.821 602.871 150.425 568.203 150.425H544.366C551.138 139.623 554.476 127.152 554.476 116.874C554.476 95.0431 542.38 76.525 523.113 70.5756C515.956 53.4052 500.807 41.5302 483.222 41.5302C458.756 41.5302 438.92 64.4673 438.92 92.7873Z"
        fill="#6F727B" />
    <path opacity="0.7917"
        d="M398.43 96.5974C392.923 104.027 389.58 113.651 389.58 124.218C389.58 147.68 406.024 166.709 426.316 166.709C428.672 166.709 430.973 166.412 433.213 165.928C432.905 168.327 432.717 170.723 432.717 173.119C432.726 183.781 435.625 194.489 441.654 203.004C447.561 211.442 457.04 217.339 468.196 217.339H468.45C468.527 217.339 508.778 217.338 508.778 217.36C518.083 217.373 523.863 220.156 527.323 223.86C530.767 227.601 532.774 232.844 532.833 241.041V264.825H581.735V225.462C581.735 209.612 573.664 201.577 557.739 201.577H517.416C505.388 201.577 495.112 195.365 488.495 184.102C483.35 175.343 481.039 164.427 481.751 153.799C453.19 152.896 430.214 125.878 430.214 92.7926C430.214 59.1163 453.992 31.7284 483.223 31.7284C484.384 31.7284 485.54 31.776 486.699 31.8661C477.887 12.9349 460.618 0.053772 440.725 0.053772C411.88 0.053772 388.492 27.1108 388.492 60.464C388.492 73.7185 392.234 85.9483 398.498 95.9037C398.439 96.0679 398.42 96.2982 398.43 96.5974Z"
        fill="#6F727B" />
    <path
        d="M796.515 732.819H798.27L797.376 731.31L735.349 626.637L735.059 626.147H734.489H643.807L711.059 529.693L711.065 529.684L711.071 529.675L716.685 521.24C739.226 487.368 739.243 443.278 716.726 409.39L711.072 400.879L710.775 400.433H710.239H608.38L642.95 294.918L643 294.766V294.606V253.254V252.254H642H507H506V253.254V294.606V294.766L506.05 294.918L540.62 400.433H418.007V205.01V204.01H417.007H22.2236C10.6256 204.01 1.22361 213.412 1.22361 225.01V274.606C1.22361 286.204 10.6256 295.606 22.2236 295.606H65.4547V472.076V646.823H22.2236C10.6256 646.823 1.2236 656.225 1.2236 667.823L1.22358 711.819C1.22358 723.417 10.6256 732.819 22.2236 732.819H70.697H225.447H413.064H491.124H604.41H710.239H796.515Z"
        fill="black" stroke="#D2AC1F" stroke-width="2" />
    <path
        d="M525.392 556.417V473.644L518.571 472.151C516.013 471.511 514.592 469.804 514.592 467.884V446.977C514.592 445.484 516.866 442.924 518.855 442.924H598.429C626.848 442.924 645.321 452.097 648.731 474.071L649.868 480.257L650.436 489.431V498.604C650.436 526.337 638.784 543.617 600.418 543.617L564.042 543.831V547.457H567.736L564.042 549.377V552.791L573.704 547.457H578.251L564.042 555.351V556.417L566.884 557.271L584.504 547.457H588.767L570.578 557.911C572.852 558.551 575.41 560.044 575.41 562.391V583.084C575.41 585.004 573.136 587.351 570.578 587.351H519.14C516.582 587.351 514.592 585.004 514.592 583.084V562.177C514.592 560.471 516.298 558.764 518.571 558.337L525.392 556.417ZM490.436 463.617L499.53 458.497H504.077L490.436 466.177V463.617ZM490.436 469.591L509.761 458.497V461.271L490.436 472.151V469.591ZM490.436 475.564L509.761 464.471V467.031L490.436 478.124V475.564ZM490.436 483.884V481.537L509.477 470.657C510.045 471.297 510.33 472.151 510.33 473.004L490.436 483.884ZM564.042 474.711V481.537L569.726 478.337H574.273L564.042 484.097V487.511L580.241 478.337H585.072L564.042 490.071V512.044H587.63C587.914 511.404 587.914 510.337 587.914 509.911L607.239 498.817V501.591L588.767 512.044H593.598C593.882 512.044 594.735 511.831 594.735 511.831L606.955 505.004V505.217C606.955 505.644 607.239 507.564 606.386 507.991L599.85 511.617C608.376 511.831 611.218 507.991 611.502 502.017C611.786 499.244 612.07 496.684 612.07 494.124C612.07 490.497 611.786 486.871 611.218 483.244C610.081 475.564 603.829 474.711 594.735 474.711H564.042V474.711ZM491.857 486.657L512.035 475.137C513.172 475.564 514.592 475.777 515.161 475.991L494.415 487.724C493.562 487.724 492.425 487.084 491.857 486.657V486.657ZM501.52 489.217L498.678 488.791L519.424 477.057C519.992 477.057 520.56 477.057 520.845 477.271V478.764L501.52 489.857V489.217ZM569.726 490.284L591.04 478.337C592.461 478.337 593.882 478.337 595.303 478.551L574.273 490.284H569.726V490.284ZM579.388 490.924L599.85 479.191H600.134C600.134 479.191 600.987 479.617 601.271 479.617C601.839 479.831 602.124 480.044 602.692 480.257L582.23 491.777H581.946C581.378 491.351 579.957 491.137 579.388 490.924V490.924ZM501.52 495.831V493.057L520.845 482.177V484.737L501.52 495.831ZM585.072 493.484L604.965 482.391C605.25 482.391 606.102 483.884 606.102 484.311L605.818 484.524L586.209 495.404C585.64 494.977 585.356 494.337 585.072 493.484V493.484ZM587.061 498.391L606.671 487.511C606.671 487.511 606.955 488.791 606.955 489.644C606.955 489.857 606.955 489.857 606.671 489.857L587.346 500.737C587.346 500.737 587.061 499.244 587.061 498.391ZM501.52 499.031L520.845 488.151V490.497L501.52 501.377V499.031ZM587.63 503.937H587.914L606.955 493.271C607.239 493.484 607.239 494.551 607.239 495.191V495.617L587.914 506.497C587.63 505.644 587.63 505.217 587.63 504.364V503.937V503.937ZM501.52 504.791L520.845 493.911V496.471L501.52 507.351V504.791ZM501.52 513.324V510.764L520.845 499.884V502.444L501.52 513.324ZM501.52 519.297V516.737L520.845 505.857V508.417L501.52 519.297ZM501.52 522.711L520.845 511.831V514.391L501.52 525.271V522.711ZM501.52 531.244V528.684L520.845 517.804V520.364L501.52 531.244ZM501.52 537.217V534.657L520.845 523.564V526.337L501.52 537.217ZM501.52 540.631L520.845 529.537V532.311L501.52 543.191V540.631V540.631ZM501.52 546.604L520.845 535.511V538.071L501.52 549.164V546.604ZM501.52 555.137V552.364L520.845 541.484V544.044L501.52 555.137ZM585.356 558.764L607.239 546.604L613.207 545.751L591.324 558.124L585.356 558.764ZM600.134 547.031L578.82 559.191H573.704L594.735 547.457C595.303 547.031 599.566 547.031 600.134 547.031V547.031ZM501.52 558.337L520.845 547.457V550.017L501.52 561.111V558.337V558.337ZM600.703 555.991L614.912 548.097C614.912 549.804 602.976 555.564 600.703 555.991ZM501.52 564.311L520.845 553.431V555.991L501.52 567.084V564.311V564.311ZM501.52 572.204V570.284L510.045 565.591C510.045 566.444 510.045 567.937 509.761 567.937L490.436 578.817V578.391C490.436 577.751 490.436 576.471 491.005 576.257C491.573 575.831 494.699 574.124 495.836 573.484L501.52 572.204ZM490.436 582.231L509.761 571.351V573.911L490.436 585.004V582.231ZM490.436 588.204L509.761 577.324V579.884L490.436 590.764V588.204ZM490.436 596.737V594.177L509.761 583.297V585.857L490.436 596.737ZM490.72 599.937L510.33 589.057C511.182 589.484 512.035 589.911 512.603 590.337L492.426 601.644L492.141 601.857C491.857 601.857 490.72 600.364 490.72 599.937V599.937ZM496.404 602.924L517.434 590.977H521.981L500.951 602.924H496.404ZM506.919 602.924L527.949 590.977H532.781L511.466 602.924H506.919ZM517.434 602.924L538.749 590.977H543.296L521.981 602.924H517.434V602.924ZM532.781 602.924H528.234L549.264 590.977H551.253V592.471L532.781 602.924ZM538.749 602.924L551.253 595.884V598.444L543.296 602.924H538.749V602.924Z"
        fill="#D2AC1F" />
    <path
        d="M335.932 447.924H340.932V442.924V300.35C340.932 290.917 336.495 282.033 328.953 276.366L322.524 271.536C272.707 234.105 204.147 234.105 154.33 271.536L147.901 276.366C140.359 282.033 135.922 290.917 135.922 300.35V442.924V447.924H140.922H335.932Z"
        fill="black" stroke="#D2AC1F" stroke-width="10" />
    <path
        d="M266.303 423.074V404.611L275.312 403.266C277.977 402.9 280.388 401.432 281.911 399.354C283.56 397.275 284.068 394.463 283.687 391.895C283.306 389.694 283.433 387.371 284.322 385.17L284.575 384.437C285.464 382.236 285.59 379.79 285.083 377.59L284.195 373.555C287.494 373.432 290.412 371.843 292.189 369.153C293.965 366.463 294.092 363.162 292.823 360.227L284.956 344.087C284.702 343.476 284.575 342.987 284.575 342.498V341.642C285.083 337.729 284.956 334.061 284.448 330.638L284.195 329.17C284.195 328.803 284.068 328.437 284.068 328.192L283.687 326.603C283.053 324.157 282.037 321.467 280.388 318.288C280.388 318.166 280.261 318.166 280.261 318.044C279.246 316.087 277.977 314.253 276.581 312.541C286.606 315.476 294.346 321.467 299.041 329.904C300.183 332.349 301.325 334.795 301.96 337.362L302.34 338.952C302.34 339.074 302.34 339.074 302.34 339.196L302.721 341.153C303.229 344.332 303.229 347.633 302.848 351.057C302.848 351.179 302.848 351.179 302.848 351.301V352.157C302.848 353.38 303.229 354.725 303.736 355.825L311.603 371.965C312.238 373.31 312.111 374.9 311.223 376.245C310.335 377.59 308.939 378.323 307.289 378.323H301.198L303.355 388.349C303.609 389.817 303.609 391.162 303.102 392.629L302.848 393.362C301.706 396.297 301.452 399.476 302.087 402.655C302.594 405.345 300.691 407.913 297.899 408.279L284.575 410.236V432L266.049 424.419C266.176 423.93 266.303 423.563 266.303 423.074Z"
        fill="#D2AC1F" />
    <path
        d="M246 414.515V396.052L255.009 394.707C257.674 394.341 260.085 392.873 261.608 390.795C263.257 388.716 263.765 385.904 263.384 383.336C263.004 381.135 263.131 378.812 264.019 376.611L264.273 375.878C265.161 373.677 265.288 371.231 264.78 369.031L263.892 364.996C267.191 364.873 270.11 363.284 271.886 360.594C273.663 357.904 273.79 354.603 272.521 351.668L264.653 335.528C264.399 334.917 264.273 334.428 264.273 333.939V333.083C264.78 329.17 264.653 325.502 264.146 322.079L263.892 320.611C263.892 320.245 263.765 319.878 263.765 319.633L263.384 318.044C262.75 315.598 261.735 312.908 260.085 309.729C260.085 309.607 259.958 309.607 259.958 309.485C258.816 307.406 257.547 305.572 256.151 303.86C264.907 307.162 271.632 312.786 275.82 320.367C276.962 322.812 278.104 325.258 278.738 327.825L279.119 329.415C279.119 329.537 279.119 329.537 279.119 329.659L279.246 331.371C279.753 334.55 279.753 337.852 279.373 341.275C279.373 341.397 279.373 341.397 279.373 341.52V342.376C279.373 343.598 279.753 344.943 280.261 346.044L288.128 362.183C288.763 363.528 288.636 365.118 287.748 366.463C286.859 367.808 285.464 368.541 283.814 368.541H277.723L280.007 378.568C280.261 380.035 280.261 381.38 279.753 382.847L279.5 383.581C278.358 386.515 278.104 389.694 278.738 392.873C279.246 395.563 277.342 398.131 274.551 398.498L261.227 400.454V422.463L245.746 416.105C245.873 415.493 246 415.004 246 414.515Z"
        fill="#D2AC1F" />
    <path
        d="M191.182 371.354C189.533 367.93 187.376 365.729 185.98 364.384L185.599 364.017C173.417 352.279 169.357 338.341 173.671 322.934C173.671 322.934 174.052 321.59 174.052 321.1C174.306 320.734 174.686 319.266 174.686 319.144C175.575 316.576 176.844 314.131 178.239 311.808C186.995 297.747 203.745 292 217.957 292C220.495 292 222.906 292.122 225.19 292.489C239.148 294.445 249.553 301.17 255.263 311.563C256.405 314.009 257.547 316.454 258.182 319.022L258.562 320.611C258.562 320.734 258.562 320.734 258.562 320.856L258.943 322.812C259.451 325.991 259.451 329.293 259.07 332.716C259.07 332.838 259.07 332.838 259.07 332.961V333.817C259.07 335.039 259.451 336.384 259.958 337.485L267.826 353.624C268.46 354.969 268.333 356.559 267.445 357.904C266.557 359.249 265.161 359.983 263.511 359.983H257.42L259.704 370.009C259.958 371.476 259.958 372.821 259.451 374.288L259.197 375.022C258.055 377.956 257.801 381.135 258.435 384.314C258.943 387.004 257.04 389.572 254.248 389.939L240.924 391.895V414.026L189.913 393.118C193.466 384.681 193.847 377.345 191.182 371.354Z"
        fill="#D2AC1F" />
    <circle cx="223.431" cy="715.426" r="117.5" transform="rotate(107.5 223.431 715.426)" fill="black" stroke="#D2AC1F"
        stroke-width="10" />
    <circle cx="223.431" cy="715.426" r="42.5" transform="rotate(107.5 223.431 715.426)" fill="#D2AC1F" />
    <line x1="329.972" y1="751.639" x2="115.386" y2="683.981" stroke="#D2AC1F" stroke-width="5" />
    <line x1="259.644" y1="608.884" x2="191.985" y2="823.471" stroke="#D2AC1F" stroke-width="5" />
    <line x1="173.701" y1="614.483" x2="277.595" y2="814.06" stroke="#D2AC1F" stroke-width="5" />
    <line x1="324.374" y1="665.697" x2="124.796" y2="769.59" stroke="#D2AC1F" stroke-width="5" />
    <circle cx="607.936" cy="743.208" r="90" transform="rotate(107.5 607.936 743.208)" fill="black" stroke="#D2AC1F"
        stroke-width="10" />
    <ellipse cx="607.936" cy="743.208" rx="32.1111" ry="32.1111" transform="rotate(107.5 607.936 743.208)"
        fill="#D2AC1F" />
    <line x1="688.25" y1="771.152" x2="526.119" y2="720.032" stroke="#D2AC1F" stroke-width="5" />
    <line x1="635.881" y1="662.893" x2="584.761" y2="825.025" stroke="#D2AC1F" stroke-width="5" />
    <line x1="570.905" y1="666.657" x2="649.402" y2="817.449" stroke="#D2AC1F" stroke-width="5" />
    <line x1="684.487" y1="706.176" x2="533.695" y2="784.674" stroke="#D2AC1F" stroke-width="5" />
</svg>