<svg width="161" height="161" viewBox="0 0 161 161" fill="none" xmlns="http://www.w3.org/2000/svg">
<path
d="M35.3918 114.417V31.6441L28.5711 30.1508C26.0134 29.5108 24.5925 27.8041 24.5925 25.8841V4.97743C24.5925 3.4841 26.866 0.924103 28.8553 0.924103H108.429C136.848 0.924103 155.321 10.0974 158.731 32.0708L159.868 38.2574L160.436 47.4308V56.6041C160.436 84.3374 148.784 101.617 110.418 101.617L74.0418 101.831V105.457H77.7363L74.0418 107.377V110.791L83.7044 105.457H88.2514L74.0418 113.351V114.417L76.8838 115.271L94.5037 105.457H98.7665L80.5783 115.911C82.8518 116.551 85.4095 118.044 85.4095 120.391V141.084C85.4095 143.004 83.136 145.351 80.5783 145.351H29.1395C26.5818 145.351 24.5925 143.004 24.5925 141.084V120.177C24.5925 118.471 26.2976 116.764 28.5711 116.337L35.3918 114.417ZM0.436157 21.6174L9.5303 16.4974H14.0774L0.436157 24.1774V21.6174ZM0.436157 27.5908L19.7612 16.4974V19.2708L0.436157 30.1508V27.5908ZM0.436157 33.5641L19.7612 22.4708V25.0308L0.436157 36.1241V33.5641ZM0.436157 41.8841V39.5374L19.477 28.6574C20.0454 29.2974 20.3296 30.1508 20.3296 31.0041L0.436157 41.8841ZM74.0418 32.7108V39.5374L79.7257 36.3374H84.2728L74.0418 42.0974V45.5108L90.2408 36.3374H95.072L74.0418 48.0708V70.0441H97.6298C97.914 69.4041 97.914 68.3374 97.914 67.9108L117.239 56.8174V59.5908L98.7665 70.0441H103.598C103.882 70.0441 104.735 69.8308 104.735 69.8308L116.955 63.0041V63.2174C116.955 63.6441 117.239 65.5641 116.386 65.9908L109.85 69.6174C118.376 69.8308 121.218 65.9908 121.502 60.0174C121.786 57.2441 122.07 54.6841 122.07 52.1241C122.07 48.4974 121.786 44.8708 121.218 41.2441C120.081 33.5641 113.829 32.7108 104.735 32.7108H74.0418ZM1.85712 44.6574L22.0347 33.1374C23.1715 33.5641 24.5925 33.7774 25.1608 33.9908L4.41484 45.7241C3.56227 45.7241 2.4255 45.0841 1.85712 44.6574ZM11.5196 47.2174L8.67772 46.7908L29.4237 35.0574C29.9921 35.0574 30.5605 35.0574 30.8447 35.2708V36.7641L11.5196 47.8574V47.2174ZM79.7257 48.2841L101.04 36.3374C102.461 36.3374 103.882 36.3374 105.303 36.5508L84.2728 48.2841H79.7257ZM89.3882 48.9241L109.85 37.1908H110.134C110.134 37.1908 110.987 37.6174 111.271 37.6174C111.839 37.8308 112.124 38.0441 112.692 38.2574L92.2301 49.7774H91.9459C91.3775 49.3508 89.9566 49.1374 89.3882 48.9241ZM11.5196 53.8308V51.0574L30.8447 40.1774V42.7374L11.5196 53.8308ZM95.072 51.4841L114.965 40.3908C115.25 40.3908 116.102 41.8841 116.102 42.3108L115.818 42.5241L96.2088 53.4041C95.6404 52.9774 95.3562 52.3374 95.072 51.4841ZM97.0614 56.3908L116.671 45.5108C116.671 45.5108 116.955 46.7908 116.955 47.6441C116.955 47.8574 116.955 47.8574 116.671 47.8574L97.3456 58.7374C97.3456 58.7374 97.0614 57.2441 97.0614 56.3908ZM11.5196 57.0308L30.8447 46.1508V48.4974L11.5196 59.3774V57.0308ZM97.6298 61.9374H97.914L116.955 51.2708C117.239 51.4841 117.239 52.5508 117.239 53.1908V53.6174L97.914 64.4974C97.6298 63.6441 97.6298 63.2174 97.6298 62.3641V61.9374ZM11.5196 62.7908L30.8447 51.9108V54.4708L11.5196 65.3508V62.7908ZM11.5196 71.3241V68.7641L30.8447 57.8841V60.4441L11.5196 71.3241ZM11.5196 77.2974V74.7374L30.8447 63.8574V66.4174L11.5196 77.2974ZM11.5196 80.7108L30.8447 69.8308V72.3908L11.5196 83.2708V80.7108ZM11.5196 89.2441V86.6841L30.8447 75.8041V78.3641L11.5196 89.2441ZM11.5196 95.2174V92.6574L30.8447 81.5641V84.3374L11.5196 95.2174ZM11.5196 98.6308L30.8447 87.5374V90.3108L11.5196 101.191V98.6308ZM11.5196 104.604L30.8447 93.5108V96.0708L11.5196 107.164V104.604ZM11.5196 113.137V110.364L30.8447 99.4841V102.044L11.5196 113.137ZM95.3562 116.764L117.239 104.604L123.207 103.751L101.324 116.124L95.3562 116.764ZM110.134 105.031L88.8198 117.191H83.7044L104.735 105.457C105.303 105.031 109.566 105.031 110.134 105.031ZM11.5196 116.337L30.8447 105.457V108.017L11.5196 119.111V116.337ZM110.703 113.991L124.912 106.097C124.912 107.804 112.976 113.564 110.703 113.991ZM11.5196 122.311L30.8447 111.431V113.991L11.5196 125.084V122.311ZM11.5196 130.204V128.284L20.0454 123.591C20.0454 124.444 20.0454 125.937 19.7612 125.937L0.436157 136.817V136.391C0.436157 135.751 0.436157 134.471 1.00454 134.257C1.57292 133.831 4.69903 132.124 5.8358 131.484L11.5196 130.204ZM0.436157 140.231L19.7612 129.351V131.911L0.436157 143.004V140.231ZM0.436157 146.204L19.7612 135.324V137.884L0.436157 148.764V146.204ZM0.436157 154.737V152.177L19.7612 141.297V143.857L0.436157 154.737ZM0.720349 157.937L20.3296 147.057C21.1822 147.484 22.0347 147.911 22.6031 148.337L2.4255 159.644L2.14131 159.857C1.85712 159.857 0.720349 158.364 0.720349 157.937ZM6.40419 160.924L27.4344 148.977H31.9815L10.9513 160.924H6.40419ZM16.9193 160.924L37.9495 148.977H42.7807L21.4664 160.924H16.9193ZM27.4344 160.924L48.7488 148.977H53.2958L31.9815 160.924H27.4344ZM42.7807 160.924H38.2337L59.2639 148.977H61.2532V150.471L42.7807 160.924ZM48.7488 160.924L61.2532 153.884V156.444L53.2958 160.924H48.7488Z"/>
</svg>
